<mxfile host="app.diagrams.net" modified="2023-02-28T06:29:36.784Z" agent="5.0 (Windows NT 10.0; Win64; x64) AppleWebKit/537.36 (KHTML, like Gecko) Chrome/107.0.0.0 Safari/537.36" etag="M8_8SL_sahCEpC5AKdd1" version="20.8.23" type="github">
  <diagram name="第 1 页" id="hGFbGkjWZbnYQ9rJkcJW">
    <mxGraphModel dx="1434" dy="764" grid="1" gridSize="10" guides="1" tooltips="1" connect="1" arrows="1" fold="1" page="1" pageScale="1" pageWidth="827" pageHeight="1169" math="0" shadow="0">
      <root>
        <mxCell id="0" />
        <mxCell id="1" parent="0" />
        <mxCell id="plHRYvymjFxcy7zUEGNi-4" style="edgeStyle=orthogonalEdgeStyle;rounded=0;orthogonalLoop=1;jettySize=auto;html=1;exitX=1;exitY=0.5;exitDx=0;exitDy=0;entryX=0;entryY=0.5;entryDx=0;entryDy=0;" edge="1" parent="1" source="plHRYvymjFxcy7zUEGNi-1" target="plHRYvymjFxcy7zUEGNi-2">
          <mxGeometry relative="1" as="geometry" />
        </mxCell>
        <mxCell id="plHRYvymjFxcy7zUEGNi-5" style="edgeStyle=orthogonalEdgeStyle;rounded=0;orthogonalLoop=1;jettySize=auto;html=1;exitX=1;exitY=0.5;exitDx=0;exitDy=0;entryX=0;entryY=0.75;entryDx=0;entryDy=0;" edge="1" parent="1" source="plHRYvymjFxcy7zUEGNi-1" target="plHRYvymjFxcy7zUEGNi-3">
          <mxGeometry relative="1" as="geometry" />
        </mxCell>
        <mxCell id="plHRYvymjFxcy7zUEGNi-1" value="部署模板" style="rounded=0;whiteSpace=wrap;html=1;" vertex="1" parent="1">
          <mxGeometry x="150" y="250" width="120" height="60" as="geometry" />
        </mxCell>
        <mxCell id="plHRYvymjFxcy7zUEGNi-2" value="部署应用" style="rounded=0;whiteSpace=wrap;html=1;" vertex="1" parent="1">
          <mxGeometry x="340" y="190" width="120" height="60" as="geometry" />
        </mxCell>
        <mxCell id="plHRYvymjFxcy7zUEGNi-3" value="部署应用" style="rounded=0;whiteSpace=wrap;html=1;" vertex="1" parent="1">
          <mxGeometry x="340" y="300" width="120" height="60" as="geometry" />
        </mxCell>
        <mxCell id="plHRYvymjFxcy7zUEGNi-6" value="参数配置" style="whiteSpace=wrap;html=1;aspect=fixed;" vertex="1" parent="1">
          <mxGeometry x="160" y="350" width="80" height="80" as="geometry" />
        </mxCell>
        <mxCell id="plHRYvymjFxcy7zUEGNi-9" value="" style="shape=flexArrow;endArrow=classic;html=1;rounded=0;entryX=0.333;entryY=0.983;entryDx=0;entryDy=0;entryPerimeter=0;" edge="1" parent="1" target="plHRYvymjFxcy7zUEGNi-1">
          <mxGeometry width="50" height="50" relative="1" as="geometry">
            <mxPoint x="190" y="350" as="sourcePoint" />
            <mxPoint x="240" y="300" as="targetPoint" />
          </mxGeometry>
        </mxCell>
        <mxCell id="plHRYvymjFxcy7zUEGNi-12" style="edgeStyle=orthogonalEdgeStyle;rounded=0;orthogonalLoop=1;jettySize=auto;html=1;exitX=0.5;exitY=0;exitDx=0;exitDy=0;" edge="1" parent="1" source="plHRYvymjFxcy7zUEGNi-10" target="plHRYvymjFxcy7zUEGNi-3">
          <mxGeometry relative="1" as="geometry" />
        </mxCell>
        <mxCell id="plHRYvymjFxcy7zUEGNi-10" value="填充参数配置&lt;br&gt;（可以使用变量）" style="whiteSpace=wrap;html=1;aspect=fixed;" vertex="1" parent="1">
          <mxGeometry x="360" y="390" width="80" height="80" as="geometry" />
        </mxCell>
        <mxCell id="plHRYvymjFxcy7zUEGNi-15" value="" style="edgeStyle=orthogonalEdgeStyle;rounded=0;orthogonalLoop=1;jettySize=auto;html=1;" edge="1" parent="1" source="plHRYvymjFxcy7zUEGNi-14" target="plHRYvymjFxcy7zUEGNi-3">
          <mxGeometry relative="1" as="geometry" />
        </mxCell>
        <mxCell id="plHRYvymjFxcy7zUEGNi-14" value="配置变量" style="whiteSpace=wrap;html=1;aspect=fixed;" vertex="1" parent="1">
          <mxGeometry x="530" y="290" width="80" height="80" as="geometry" />
        </mxCell>
        <mxCell id="plHRYvymjFxcy7zUEGNi-22" style="edgeStyle=orthogonalEdgeStyle;rounded=0;orthogonalLoop=1;jettySize=auto;html=1;exitX=1;exitY=0.5;exitDx=0;exitDy=0;" edge="1" parent="1" source="plHRYvymjFxcy7zUEGNi-17" target="plHRYvymjFxcy7zUEGNi-21">
          <mxGeometry relative="1" as="geometry" />
        </mxCell>
        <mxCell id="plHRYvymjFxcy7zUEGNi-17" value="部署应用" style="rounded=0;whiteSpace=wrap;html=1;" vertex="1" parent="1">
          <mxGeometry x="240" y="525" width="120" height="60" as="geometry" />
        </mxCell>
        <mxCell id="plHRYvymjFxcy7zUEGNi-20" style="edgeStyle=orthogonalEdgeStyle;rounded=0;orthogonalLoop=1;jettySize=auto;html=1;exitX=1;exitY=0.5;exitDx=0;exitDy=0;entryX=0;entryY=0.5;entryDx=0;entryDy=0;" edge="1" parent="1" source="plHRYvymjFxcy7zUEGNi-18" target="plHRYvymjFxcy7zUEGNi-19">
          <mxGeometry relative="1" as="geometry" />
        </mxCell>
        <mxCell id="plHRYvymjFxcy7zUEGNi-18" value="变量传参" style="whiteSpace=wrap;html=1;aspect=fixed;" vertex="1" parent="1">
          <mxGeometry x="120" y="620" width="80" height="80" as="geometry" />
        </mxCell>
        <mxCell id="plHRYvymjFxcy7zUEGNi-24" style="edgeStyle=orthogonalEdgeStyle;rounded=0;orthogonalLoop=1;jettySize=auto;html=1;exitX=0.5;exitY=0;exitDx=0;exitDy=0;" edge="1" parent="1" source="plHRYvymjFxcy7zUEGNi-19" target="plHRYvymjFxcy7zUEGNi-17">
          <mxGeometry relative="1" as="geometry" />
        </mxCell>
        <mxCell id="plHRYvymjFxcy7zUEGNi-19" value="完整参数配置" style="whiteSpace=wrap;html=1;aspect=fixed;" vertex="1" parent="1">
          <mxGeometry x="260" y="620" width="80" height="80" as="geometry" />
        </mxCell>
        <mxCell id="plHRYvymjFxcy7zUEGNi-21" value="部署" style="ellipse;whiteSpace=wrap;html=1;aspect=fixed;" vertex="1" parent="1">
          <mxGeometry x="410" y="570" width="80" height="80" as="geometry" />
        </mxCell>
      </root>
    </mxGraphModel>
  </diagram>
</mxfile>
